<?xml version="1.0" standalone="no"?>
<!DOCTYPE svg PUBLIC "-//W3C//DTD SVG 20010904//EN"
 "http://www.w3.org/TR/2001/REC-SVG-20010904/DTD/svg10.dtd">
<svg version="1.0" xmlns="http://www.w3.org/2000/svg"
 width="150.000000pt" height="150.000000pt" viewBox="0 0 150.000000 150.000000"
 preserveAspectRatio="xMidYMid meet">

<g transform="translate(0.000000,150.000000) scale(0.100000,-0.100000)"
fill="#000000" stroke="none">
<path d="M164 783 c-10 -10 -21 -18 -25 -18 -15 0 -20 -14 -21 -61 0 -40 4
-51 26 -71 62 -53 166 -9 166 69 0 41 -6 50 -50 77 -43 26 -73 27 -96 4z m93
-29 c20 -20 24 -31 19 -57 -4 -17 -13 -38 -21 -46 -18 -18 -69 -19 -89 -1 -24
19 -21 85 6 110 29 27 54 25 85 -6z"/>
</g>
</svg>
